<svg width="280" height="342" viewBox="0 0 280 342" fill="none" xmlns="http://www.w3.org/2000/svg">
<path d="M0 0C92.4 0 184.8 0 280 0C280 25.08 280 50.16 280 76C247.33 76 214.66 76 181 76C181 163.78 181 251.56 181 342C154.93 342 128.86 342 102 342C102 254.22 102 166.44 102 76C68.34 76 34.68 76 0 76C0 50.92 0 25.84 0 0Z" fill="#FDFDFD"/>
<path d="M101.5 103V217.5C68.0432 201.294 55.5752 187.334 41 156.5C63.97 122.252 77.2741 111.695 101.5 103Z" fill="#F98B29" stroke="#F98B29"/>
<path d="M42 254.704C72.9558 294.012 84.9574 302.89 102 308V218H71.2562C69.824 224.226 60.4524 234.669 42 254.704Z" fill="#45B3AC"/>
</svg>
